<mxfile host="app.diagrams.net" agent="Mozilla/5.0 (Windows NT 10.0; Win64; x64) AppleWebKit/537.36 (KHTML, like Gecko) Chrome/131.0.0.0 Safari/537.36" version="25.0.1">
  <diagram name="Page-1" id="beklGTCk7ITNigBCeBJ4">
    <mxGraphModel grid="1" page="1" gridSize="10" guides="1" tooltips="1" connect="1" arrows="1" fold="1" pageScale="1" pageWidth="850" pageHeight="1100" math="0" shadow="0">
      <root>
        <mxCell id="0" />
        <mxCell id="1" parent="0" />
        <mxCell id="IwdYHUpR4AdwYOnIYjxf-1" value="&lt;font style=&quot;font-size: 18px;&quot;&gt;user&lt;/font&gt;" style="rounded=0;whiteSpace=wrap;html=1;" vertex="1" parent="1">
          <mxGeometry x="250" y="450" width="120" height="60" as="geometry" />
        </mxCell>
        <mxCell id="IwdYHUpR4AdwYOnIYjxf-2" value="" style="group" connectable="0" vertex="1" parent="1">
          <mxGeometry x="930" y="760" width="150" height="70" as="geometry" />
        </mxCell>
        <mxCell id="IwdYHUpR4AdwYOnIYjxf-3" value="" style="rounded=0;whiteSpace=wrap;html=1;" vertex="1" parent="IwdYHUpR4AdwYOnIYjxf-2">
          <mxGeometry width="150" height="70" as="geometry" />
        </mxCell>
        <mxCell id="IwdYHUpR4AdwYOnIYjxf-4" value="&lt;font style=&quot;font-size: 18px;&quot;&gt;comment&lt;/font&gt;" style="rounded=0;whiteSpace=wrap;html=1;" vertex="1" parent="IwdYHUpR4AdwYOnIYjxf-2">
          <mxGeometry x="18.75" y="8.75" width="112.5" height="52.5" as="geometry" />
        </mxCell>
        <mxCell id="IwdYHUpR4AdwYOnIYjxf-5" value="&lt;font style=&quot;font-size: 18px;&quot;&gt;post&lt;/font&gt;" style="rounded=0;whiteSpace=wrap;html=1;" vertex="1" parent="1">
          <mxGeometry x="950" y="450" width="120" height="60" as="geometry" />
        </mxCell>
        <mxCell id="IwdYHUpR4AdwYOnIYjxf-6" value="&lt;span style=&quot;font-size: 18px;&quot;&gt;story&lt;/span&gt;" style="rounded=0;whiteSpace=wrap;html=1;" vertex="1" parent="1">
          <mxGeometry x="60" y="710" width="120" height="60" as="geometry" />
        </mxCell>
        <mxCell id="IwdYHUpR4AdwYOnIYjxf-7" value="&lt;font style=&quot;font-size: 18px;&quot;&gt;Direct Message&lt;/font&gt;" style="rounded=0;whiteSpace=wrap;html=1;" vertex="1" parent="1">
          <mxGeometry x="370" y="710" width="120" height="60" as="geometry" />
        </mxCell>
        <mxCell id="IwdYHUpR4AdwYOnIYjxf-8" value="&lt;span style=&quot;font-size: 14px;&quot;&gt;has&lt;/span&gt;" style="rhombus;whiteSpace=wrap;html=1;" vertex="1" parent="1">
          <mxGeometry x="945" y="585" width="120" height="80" as="geometry" />
        </mxCell>
        <mxCell id="IwdYHUpR4AdwYOnIYjxf-9" value="&lt;font style=&quot;font-size: 14px;&quot;&gt;creates&lt;/font&gt;" style="rhombus;whiteSpace=wrap;html=1;" vertex="1" parent="1">
          <mxGeometry x="650" y="445" width="103.5" height="70" as="geometry" />
        </mxCell>
        <mxCell id="IwdYHUpR4AdwYOnIYjxf-10" value="" style="endArrow=none;html=1;rounded=0;entryX=0;entryY=0.5;entryDx=0;entryDy=0;exitX=1;exitY=0.5;exitDx=0;exitDy=0;" edge="1" parent="1" source="IwdYHUpR4AdwYOnIYjxf-1" target="IwdYHUpR4AdwYOnIYjxf-9">
          <mxGeometry width="50" height="50" relative="1" as="geometry">
            <mxPoint x="420" y="540" as="sourcePoint" />
            <mxPoint x="470" y="490" as="targetPoint" />
          </mxGeometry>
        </mxCell>
        <mxCell id="IwdYHUpR4AdwYOnIYjxf-11" value="1" style="edgeLabel;html=1;align=center;verticalAlign=middle;resizable=0;points=[];fontSize=13;" connectable="0" vertex="1" parent="IwdYHUpR4AdwYOnIYjxf-10">
          <mxGeometry x="-0.57" y="2" relative="1" as="geometry">
            <mxPoint x="-16" y="-8" as="offset" />
          </mxGeometry>
        </mxCell>
        <mxCell id="IwdYHUpR4AdwYOnIYjxf-12" value="" style="endArrow=none;html=1;rounded=0;entryX=0;entryY=0.5;entryDx=0;entryDy=0;exitX=1;exitY=0.5;exitDx=0;exitDy=0;" edge="1" parent="1" source="IwdYHUpR4AdwYOnIYjxf-9" target="IwdYHUpR4AdwYOnIYjxf-5">
          <mxGeometry width="50" height="50" relative="1" as="geometry">
            <mxPoint x="510" y="690" as="sourcePoint" />
            <mxPoint x="560" y="640" as="targetPoint" />
          </mxGeometry>
        </mxCell>
        <mxCell id="IwdYHUpR4AdwYOnIYjxf-13" value="N" style="edgeLabel;html=1;align=center;verticalAlign=middle;resizable=0;points=[];fontSize=14;" connectable="0" vertex="1" parent="IwdYHUpR4AdwYOnIYjxf-12">
          <mxGeometry x="-0.2684" relative="1" as="geometry">
            <mxPoint x="52" y="-10" as="offset" />
          </mxGeometry>
        </mxCell>
        <mxCell id="IwdYHUpR4AdwYOnIYjxf-14" value="" style="endArrow=none;html=1;rounded=0;entryX=0.5;entryY=1;entryDx=0;entryDy=0;exitX=0.5;exitY=0;exitDx=0;exitDy=0;" edge="1" parent="1" source="IwdYHUpR4AdwYOnIYjxf-8" target="IwdYHUpR4AdwYOnIYjxf-5">
          <mxGeometry width="50" height="50" relative="1" as="geometry">
            <mxPoint x="510" y="690" as="sourcePoint" />
            <mxPoint x="560" y="640" as="targetPoint" />
          </mxGeometry>
        </mxCell>
        <mxCell id="IwdYHUpR4AdwYOnIYjxf-15" value="" style="endArrow=none;html=1;rounded=0;entryX=0.5;entryY=1;entryDx=0;entryDy=0;exitX=0.5;exitY=0;exitDx=0;exitDy=0;" edge="1" parent="1" source="IwdYHUpR4AdwYOnIYjxf-3" target="IwdYHUpR4AdwYOnIYjxf-8">
          <mxGeometry width="50" height="50" relative="1" as="geometry">
            <mxPoint x="765" y="690" as="sourcePoint" />
            <mxPoint x="815" y="640" as="targetPoint" />
          </mxGeometry>
        </mxCell>
        <mxCell id="IwdYHUpR4AdwYOnIYjxf-16" value="&lt;u&gt;PostID&lt;/u&gt;" style="ellipse;whiteSpace=wrap;html=1;" vertex="1" parent="1">
          <mxGeometry x="920" y="240" width="100" height="50" as="geometry" />
        </mxCell>
        <mxCell id="IwdYHUpR4AdwYOnIYjxf-17" value="ProfilePicture" style="ellipse;whiteSpace=wrap;html=1;" vertex="1" parent="1">
          <mxGeometry x="364" y="290" width="100" height="50" as="geometry" />
        </mxCell>
        <mxCell id="IwdYHUpR4AdwYOnIYjxf-18" value="Password" style="ellipse;whiteSpace=wrap;html=1;" vertex="1" parent="1">
          <mxGeometry x="320" y="230" width="100" height="50" as="geometry" />
        </mxCell>
        <mxCell id="IwdYHUpR4AdwYOnIYjxf-19" value="Email" style="ellipse;whiteSpace=wrap;html=1;" vertex="1" parent="1">
          <mxGeometry x="170" y="240" width="100" height="50" as="geometry" />
        </mxCell>
        <mxCell id="IwdYHUpR4AdwYOnIYjxf-20" value="Username" style="ellipse;whiteSpace=wrap;html=1;" vertex="1" parent="1">
          <mxGeometry x="364" y="350" width="100" height="50" as="geometry" />
        </mxCell>
        <mxCell id="IwdYHUpR4AdwYOnIYjxf-21" value="&lt;u&gt;UserID&lt;/u&gt;" style="ellipse;whiteSpace=wrap;html=1;" vertex="1" parent="1">
          <mxGeometry x="250" y="180" width="100" height="50" as="geometry" />
        </mxCell>
        <mxCell id="IwdYHUpR4AdwYOnIYjxf-22" value="Bio" style="ellipse;whiteSpace=wrap;html=1;" vertex="1" parent="1">
          <mxGeometry x="170" y="370" width="100" height="50" as="geometry" />
        </mxCell>
        <mxCell id="IwdYHUpR4AdwYOnIYjxf-23" value="DateJoined" style="ellipse;whiteSpace=wrap;html=1;" vertex="1" parent="1">
          <mxGeometry x="160" y="300" width="100" height="50" as="geometry" />
        </mxCell>
        <mxCell id="IwdYHUpR4AdwYOnIYjxf-24" value="" style="endArrow=none;html=1;rounded=0;entryX=0.5;entryY=0;entryDx=0;entryDy=0;exitX=0.5;exitY=1;exitDx=0;exitDy=0;" edge="1" parent="1" source="IwdYHUpR4AdwYOnIYjxf-21" target="IwdYHUpR4AdwYOnIYjxf-1">
          <mxGeometry width="50" height="50" relative="1" as="geometry">
            <mxPoint x="-80" y="490" as="sourcePoint" />
            <mxPoint x="-30" y="440" as="targetPoint" />
          </mxGeometry>
        </mxCell>
        <mxCell id="IwdYHUpR4AdwYOnIYjxf-25" value="" style="endArrow=none;html=1;rounded=0;entryX=0;entryY=0.5;entryDx=0;entryDy=0;exitX=0.5;exitY=0;exitDx=0;exitDy=0;" edge="1" parent="1" source="IwdYHUpR4AdwYOnIYjxf-5" target="IwdYHUpR4AdwYOnIYjxf-35">
          <mxGeometry width="50" height="50" relative="1" as="geometry">
            <mxPoint x="776.75" y="365" as="sourcePoint" />
            <mxPoint x="826.75" y="315" as="targetPoint" />
          </mxGeometry>
        </mxCell>
        <mxCell id="IwdYHUpR4AdwYOnIYjxf-26" value="" style="endArrow=none;html=1;rounded=0;entryX=0.5;entryY=1;entryDx=0;entryDy=0;exitX=0.321;exitY=0.258;exitDx=0;exitDy=0;exitPerimeter=0;" edge="1" parent="1" source="IwdYHUpR4AdwYOnIYjxf-73" target="IwdYHUpR4AdwYOnIYjxf-70">
          <mxGeometry width="50" height="50" relative="1" as="geometry">
            <mxPoint x="804.64" y="432.32" as="sourcePoint" />
            <mxPoint x="779.9953390593274" y="289.9976695296637" as="targetPoint" />
          </mxGeometry>
        </mxCell>
        <mxCell id="IwdYHUpR4AdwYOnIYjxf-27" value="N" style="edgeLabel;html=1;align=center;verticalAlign=middle;resizable=0;points=[];" connectable="0" vertex="1" parent="IwdYHUpR4AdwYOnIYjxf-26">
          <mxGeometry x="0.1844" y="-4" relative="1" as="geometry">
            <mxPoint x="-6" y="-14" as="offset" />
          </mxGeometry>
        </mxCell>
        <mxCell id="IwdYHUpR4AdwYOnIYjxf-28" value="" style="endArrow=none;html=1;rounded=0;entryX=0.5;entryY=1;entryDx=0;entryDy=0;exitX=0.5;exitY=0;exitDx=0;exitDy=0;" edge="1" parent="1" source="IwdYHUpR4AdwYOnIYjxf-5" target="IwdYHUpR4AdwYOnIYjxf-16">
          <mxGeometry width="50" height="50" relative="1" as="geometry">
            <mxPoint x="990" y="400" as="sourcePoint" />
            <mxPoint x="1040" y="350" as="targetPoint" />
          </mxGeometry>
        </mxCell>
        <mxCell id="IwdYHUpR4AdwYOnIYjxf-29" value="" style="endArrow=none;html=1;rounded=0;entryX=0;entryY=1;entryDx=0;entryDy=0;" edge="1" parent="1" target="IwdYHUpR4AdwYOnIYjxf-20">
          <mxGeometry width="50" height="50" relative="1" as="geometry">
            <mxPoint x="310" y="450" as="sourcePoint" />
            <mxPoint x="-30" y="440" as="targetPoint" />
          </mxGeometry>
        </mxCell>
        <mxCell id="IwdYHUpR4AdwYOnIYjxf-30" value="" style="endArrow=none;html=1;rounded=0;entryX=0;entryY=1;entryDx=0;entryDy=0;exitX=0.5;exitY=0;exitDx=0;exitDy=0;" edge="1" parent="1" source="IwdYHUpR4AdwYOnIYjxf-1" target="IwdYHUpR4AdwYOnIYjxf-17">
          <mxGeometry width="50" height="50" relative="1" as="geometry">
            <mxPoint x="-80" y="490" as="sourcePoint" />
            <mxPoint x="-30" y="440" as="targetPoint" />
          </mxGeometry>
        </mxCell>
        <mxCell id="IwdYHUpR4AdwYOnIYjxf-31" value="" style="endArrow=none;html=1;rounded=0;exitX=0.5;exitY=0;exitDx=0;exitDy=0;" edge="1" parent="1" source="IwdYHUpR4AdwYOnIYjxf-1" target="IwdYHUpR4AdwYOnIYjxf-18">
          <mxGeometry width="50" height="50" relative="1" as="geometry">
            <mxPoint x="140" y="490" as="sourcePoint" />
            <mxPoint x="190" y="440" as="targetPoint" />
          </mxGeometry>
        </mxCell>
        <mxCell id="IwdYHUpR4AdwYOnIYjxf-32" value="" style="endArrow=none;html=1;rounded=0;entryX=1;entryY=0.5;entryDx=0;entryDy=0;exitX=0.5;exitY=0;exitDx=0;exitDy=0;" edge="1" parent="1" source="IwdYHUpR4AdwYOnIYjxf-1" target="IwdYHUpR4AdwYOnIYjxf-19">
          <mxGeometry width="50" height="50" relative="1" as="geometry">
            <mxPoint x="250" y="320" as="sourcePoint" />
            <mxPoint x="300" y="270" as="targetPoint" />
          </mxGeometry>
        </mxCell>
        <mxCell id="IwdYHUpR4AdwYOnIYjxf-33" value="" style="endArrow=none;html=1;rounded=0;entryX=0.5;entryY=0;entryDx=0;entryDy=0;exitX=1;exitY=0.5;exitDx=0;exitDy=0;" edge="1" parent="1" source="IwdYHUpR4AdwYOnIYjxf-23" target="IwdYHUpR4AdwYOnIYjxf-1">
          <mxGeometry width="50" height="50" relative="1" as="geometry">
            <mxPoint x="240" y="370" as="sourcePoint" />
            <mxPoint x="290" y="320" as="targetPoint" />
          </mxGeometry>
        </mxCell>
        <mxCell id="IwdYHUpR4AdwYOnIYjxf-34" value="" style="endArrow=none;html=1;rounded=0;exitX=0.5;exitY=0;exitDx=0;exitDy=0;" edge="1" parent="1" source="IwdYHUpR4AdwYOnIYjxf-1" target="IwdYHUpR4AdwYOnIYjxf-22">
          <mxGeometry width="50" height="50" relative="1" as="geometry">
            <mxPoint x="220" y="445" as="sourcePoint" />
            <mxPoint x="250" y="395" as="targetPoint" />
          </mxGeometry>
        </mxCell>
        <mxCell id="IwdYHUpR4AdwYOnIYjxf-35" value="Media" style="ellipse;whiteSpace=wrap;html=1;" vertex="1" parent="1">
          <mxGeometry x="1040" y="240" width="100" height="50" as="geometry" />
        </mxCell>
        <mxCell id="IwdYHUpR4AdwYOnIYjxf-36" value="DatePosted" style="ellipse;whiteSpace=wrap;html=1;" vertex="1" parent="1">
          <mxGeometry x="880" y="310" width="100" height="50" as="geometry" />
        </mxCell>
        <mxCell id="IwdYHUpR4AdwYOnIYjxf-37" value="Caption" style="ellipse;whiteSpace=wrap;html=1;" vertex="1" parent="1">
          <mxGeometry x="1040" y="310" width="100" height="50" as="geometry" />
        </mxCell>
        <mxCell id="IwdYHUpR4AdwYOnIYjxf-38" value="" style="endArrow=none;html=1;rounded=0;entryX=0.5;entryY=1;entryDx=0;entryDy=0;exitX=0.382;exitY=0.157;exitDx=0;exitDy=0;exitPerimeter=0;" edge="1" parent="1" source="IwdYHUpR4AdwYOnIYjxf-84" target="IwdYHUpR4AdwYOnIYjxf-1">
          <mxGeometry width="50" height="50" relative="1" as="geometry">
            <mxPoint x="270" y="585" as="sourcePoint" />
            <mxPoint x="320" y="535" as="targetPoint" />
          </mxGeometry>
        </mxCell>
        <mxCell id="IwdYHUpR4AdwYOnIYjxf-39" value="1" style="edgeLabel;html=1;align=center;verticalAlign=middle;resizable=0;points=[];" connectable="0" vertex="1" parent="IwdYHUpR4AdwYOnIYjxf-38">
          <mxGeometry x="0.4127" y="1" relative="1" as="geometry">
            <mxPoint as="offset" />
          </mxGeometry>
        </mxCell>
        <mxCell id="IwdYHUpR4AdwYOnIYjxf-40" value="" style="endArrow=none;html=1;rounded=0;entryX=0.067;entryY=1.032;entryDx=0;entryDy=0;entryPerimeter=0;exitX=1;exitY=0;exitDx=0;exitDy=0;" edge="1" parent="1" source="IwdYHUpR4AdwYOnIYjxf-83" target="IwdYHUpR4AdwYOnIYjxf-1">
          <mxGeometry width="50" height="50" relative="1" as="geometry">
            <mxPoint x="203.5" y="600" as="sourcePoint" />
            <mxPoint x="253.5" y="550" as="targetPoint" />
          </mxGeometry>
        </mxCell>
        <mxCell id="IwdYHUpR4AdwYOnIYjxf-41" value="1" style="edgeLabel;html=1;align=center;verticalAlign=middle;resizable=0;points=[];" connectable="0" vertex="1" parent="IwdYHUpR4AdwYOnIYjxf-40">
          <mxGeometry x="0.4043" y="1" relative="1" as="geometry">
            <mxPoint as="offset" />
          </mxGeometry>
        </mxCell>
        <mxCell id="IwdYHUpR4AdwYOnIYjxf-42" value="" style="endArrow=none;html=1;rounded=0;entryX=0;entryY=0.5;entryDx=0;entryDy=0;exitX=1;exitY=0.5;exitDx=0;exitDy=0;" edge="1" parent="1" source="IwdYHUpR4AdwYOnIYjxf-79" target="IwdYHUpR4AdwYOnIYjxf-82">
          <mxGeometry width="50" height="50" relative="1" as="geometry">
            <mxPoint x="80" y="585" as="sourcePoint" />
            <mxPoint x="130" y="535" as="targetPoint" />
          </mxGeometry>
        </mxCell>
        <mxCell id="IwdYHUpR4AdwYOnIYjxf-43" value="M" style="edgeLabel;html=1;align=center;verticalAlign=middle;resizable=0;points=[];" connectable="0" vertex="1" parent="IwdYHUpR4AdwYOnIYjxf-42">
          <mxGeometry x="-0.0778" y="4" relative="1" as="geometry">
            <mxPoint x="-27" y="-6" as="offset" />
          </mxGeometry>
        </mxCell>
        <mxCell id="IwdYHUpR4AdwYOnIYjxf-44" value="" style="endArrow=none;html=1;rounded=0;entryX=0;entryY=0.5;entryDx=0;entryDy=0;exitX=1;exitY=0.5;exitDx=0;exitDy=0;" edge="1" parent="1" source="IwdYHUpR4AdwYOnIYjxf-82" target="IwdYHUpR4AdwYOnIYjxf-1">
          <mxGeometry width="50" height="50" relative="1" as="geometry">
            <mxPoint x="180" y="610" as="sourcePoint" />
            <mxPoint x="230" y="560" as="targetPoint" />
          </mxGeometry>
        </mxCell>
        <mxCell id="IwdYHUpR4AdwYOnIYjxf-45" value="N" style="edgeLabel;html=1;align=center;verticalAlign=middle;resizable=0;points=[];" connectable="0" vertex="1" parent="IwdYHUpR4AdwYOnIYjxf-44">
          <mxGeometry x="0.2606" y="-3" relative="1" as="geometry">
            <mxPoint x="11" y="-13" as="offset" />
          </mxGeometry>
        </mxCell>
        <mxCell id="IwdYHUpR4AdwYOnIYjxf-46" value="" style="endArrow=none;html=1;rounded=0;entryX=0.5;entryY=1;entryDx=0;entryDy=0;exitX=0.5;exitY=0;exitDx=0;exitDy=0;" edge="1" parent="1" source="IwdYHUpR4AdwYOnIYjxf-81" target="IwdYHUpR4AdwYOnIYjxf-79">
          <mxGeometry width="50" height="50" relative="1" as="geometry">
            <mxPoint x="10" y="715" as="sourcePoint" />
            <mxPoint x="60" y="665" as="targetPoint" />
          </mxGeometry>
        </mxCell>
        <mxCell id="IwdYHUpR4AdwYOnIYjxf-47" value="" style="endArrow=none;html=1;rounded=0;entryX=0.5;entryY=1;entryDx=0;entryDy=0;exitX=0.5;exitY=0;exitDx=0;exitDy=0;" edge="1" parent="1" source="IwdYHUpR4AdwYOnIYjxf-77" target="IwdYHUpR4AdwYOnIYjxf-79">
          <mxGeometry width="50" height="50" relative="1" as="geometry">
            <mxPoint x="-10" y="680" as="sourcePoint" />
            <mxPoint x="40" y="630" as="targetPoint" />
          </mxGeometry>
        </mxCell>
        <mxCell id="IwdYHUpR4AdwYOnIYjxf-48" value="" style="endArrow=none;html=1;rounded=0;entryX=0.329;entryY=0.921;entryDx=0;entryDy=0;entryPerimeter=0;exitX=0.5;exitY=0;exitDx=0;exitDy=0;" edge="1" parent="1" source="IwdYHUpR4AdwYOnIYjxf-70" target="IwdYHUpR4AdwYOnIYjxf-76">
          <mxGeometry width="50" height="50" relative="1" as="geometry">
            <mxPoint x="680" y="170" as="sourcePoint" />
            <mxPoint x="730" y="120" as="targetPoint" />
          </mxGeometry>
        </mxCell>
        <mxCell id="IwdYHUpR4AdwYOnIYjxf-49" value="" style="endArrow=none;html=1;rounded=0;entryX=0.5;entryY=1;entryDx=0;entryDy=0;exitX=0.5;exitY=0;exitDx=0;exitDy=0;" edge="1" parent="1" source="IwdYHUpR4AdwYOnIYjxf-70" target="IwdYHUpR4AdwYOnIYjxf-75">
          <mxGeometry width="50" height="50" relative="1" as="geometry">
            <mxPoint x="50" y="550" as="sourcePoint" />
            <mxPoint x="100" y="500" as="targetPoint" />
          </mxGeometry>
        </mxCell>
        <mxCell id="IwdYHUpR4AdwYOnIYjxf-50" value="" style="endArrow=none;html=1;rounded=0;exitX=1;exitY=1;exitDx=0;exitDy=0;entryX=0;entryY=0;entryDx=0;entryDy=0;" edge="1" parent="1" source="IwdYHUpR4AdwYOnIYjxf-73" target="IwdYHUpR4AdwYOnIYjxf-5">
          <mxGeometry width="50" height="50" relative="1" as="geometry">
            <mxPoint x="827" y="420" as="sourcePoint" />
            <mxPoint x="877" y="370" as="targetPoint" />
          </mxGeometry>
        </mxCell>
        <mxCell id="IwdYHUpR4AdwYOnIYjxf-51" value="1" style="edgeLabel;html=1;align=center;verticalAlign=middle;resizable=0;points=[];" connectable="0" vertex="1" parent="IwdYHUpR4AdwYOnIYjxf-50">
          <mxGeometry x="0.3842" relative="1" as="geometry">
            <mxPoint x="42" y="11" as="offset" />
          </mxGeometry>
        </mxCell>
        <mxCell id="IwdYHUpR4AdwYOnIYjxf-52" value="" style="endArrow=none;html=1;rounded=0;exitX=0.677;exitY=0.152;exitDx=0;exitDy=0;exitPerimeter=0;entryX=0.5;entryY=1;entryDx=0;entryDy=0;" edge="1" parent="1" source="IwdYHUpR4AdwYOnIYjxf-72" target="IwdYHUpR4AdwYOnIYjxf-70">
          <mxGeometry width="50" height="50" relative="1" as="geometry">
            <mxPoint x="646.75" y="315" as="sourcePoint" />
            <mxPoint x="696.75" y="265" as="targetPoint" />
          </mxGeometry>
        </mxCell>
        <mxCell id="IwdYHUpR4AdwYOnIYjxf-53" value="N" style="edgeLabel;html=1;align=center;verticalAlign=middle;resizable=0;points=[];" connectable="0" vertex="1" parent="IwdYHUpR4AdwYOnIYjxf-52">
          <mxGeometry x="0.1012" y="1" relative="1" as="geometry">
            <mxPoint x="-1" y="-15" as="offset" />
          </mxGeometry>
        </mxCell>
        <mxCell id="IwdYHUpR4AdwYOnIYjxf-54" value="" style="endArrow=none;html=1;rounded=0;exitX=1;exitY=0;exitDx=0;exitDy=0;entryX=0;entryY=0.5;entryDx=0;entryDy=0;" edge="1" parent="1" source="IwdYHUpR4AdwYOnIYjxf-1" target="IwdYHUpR4AdwYOnIYjxf-72">
          <mxGeometry width="50" height="50" relative="1" as="geometry">
            <mxPoint x="430" y="445" as="sourcePoint" />
            <mxPoint x="480" y="395" as="targetPoint" />
          </mxGeometry>
        </mxCell>
        <mxCell id="IwdYHUpR4AdwYOnIYjxf-55" value="1" style="edgeLabel;html=1;align=center;verticalAlign=middle;resizable=0;points=[];" connectable="0" vertex="1" parent="IwdYHUpR4AdwYOnIYjxf-54">
          <mxGeometry x="0.0382" y="-1" relative="1" as="geometry">
            <mxPoint x="-82" y="38" as="offset" />
          </mxGeometry>
        </mxCell>
        <mxCell id="IwdYHUpR4AdwYOnIYjxf-56" value="" style="endArrow=none;html=1;rounded=0;exitX=1;exitY=0.5;exitDx=0;exitDy=0;entryX=0.5;entryY=0;entryDx=0;entryDy=0;" edge="1" parent="1" source="IwdYHUpR4AdwYOnIYjxf-3" target="IwdYHUpR4AdwYOnIYjxf-66">
          <mxGeometry width="50" height="50" relative="1" as="geometry">
            <mxPoint x="1155" y="635" as="sourcePoint" />
            <mxPoint x="1205" y="585" as="targetPoint" />
          </mxGeometry>
        </mxCell>
        <mxCell id="IwdYHUpR4AdwYOnIYjxf-57" value="" style="endArrow=none;html=1;rounded=0;entryX=0;entryY=0.5;entryDx=0;entryDy=0;exitX=1;exitY=0.5;exitDx=0;exitDy=0;" edge="1" parent="1" source="IwdYHUpR4AdwYOnIYjxf-3" target="IwdYHUpR4AdwYOnIYjxf-67">
          <mxGeometry width="50" height="50" relative="1" as="geometry">
            <mxPoint x="1215" y="655" as="sourcePoint" />
            <mxPoint x="1265" y="605" as="targetPoint" />
          </mxGeometry>
        </mxCell>
        <mxCell id="IwdYHUpR4AdwYOnIYjxf-58" value="" style="endArrow=none;html=1;rounded=0;entryX=0.5;entryY=1;entryDx=0;entryDy=0;exitX=1;exitY=0.5;exitDx=0;exitDy=0;" edge="1" parent="1" source="IwdYHUpR4AdwYOnIYjxf-3" target="IwdYHUpR4AdwYOnIYjxf-68">
          <mxGeometry width="50" height="50" relative="1" as="geometry">
            <mxPoint x="1165" y="580" as="sourcePoint" />
            <mxPoint x="1215" y="530" as="targetPoint" />
          </mxGeometry>
        </mxCell>
        <mxCell id="IwdYHUpR4AdwYOnIYjxf-59" value="" style="endArrow=none;html=1;rounded=0;exitX=1;exitY=1;exitDx=0;exitDy=0;entryX=0;entryY=0;entryDx=0;entryDy=0;" edge="1" parent="1" source="IwdYHUpR4AdwYOnIYjxf-65" target="IwdYHUpR4AdwYOnIYjxf-3">
          <mxGeometry width="50" height="50" relative="1" as="geometry">
            <mxPoint x="600" y="610" as="sourcePoint" />
            <mxPoint x="650" y="560" as="targetPoint" />
          </mxGeometry>
        </mxCell>
        <mxCell id="IwdYHUpR4AdwYOnIYjxf-60" value="N" style="edgeLabel;html=1;align=center;verticalAlign=middle;resizable=0;points=[];rotation=0;" connectable="0" vertex="1" parent="IwdYHUpR4AdwYOnIYjxf-59">
          <mxGeometry x="0.1274" relative="1" as="geometry">
            <mxPoint x="-1" as="offset" />
          </mxGeometry>
        </mxCell>
        <mxCell id="IwdYHUpR4AdwYOnIYjxf-61" value="" style="endArrow=none;html=1;rounded=0;entryX=1;entryY=1;entryDx=0;entryDy=0;exitX=0;exitY=0;exitDx=0;exitDy=0;" edge="1" parent="1" source="IwdYHUpR4AdwYOnIYjxf-65" target="IwdYHUpR4AdwYOnIYjxf-1">
          <mxGeometry width="50" height="50" relative="1" as="geometry">
            <mxPoint x="389" y="635" as="sourcePoint" />
            <mxPoint x="439" y="585" as="targetPoint" />
          </mxGeometry>
        </mxCell>
        <mxCell id="IwdYHUpR4AdwYOnIYjxf-62" value="1" style="edgeLabel;html=1;align=center;verticalAlign=middle;resizable=0;points=[];" connectable="0" vertex="1" parent="IwdYHUpR4AdwYOnIYjxf-61">
          <mxGeometry x="0.2753" y="-1" relative="1" as="geometry">
            <mxPoint as="offset" />
          </mxGeometry>
        </mxCell>
        <mxCell id="IwdYHUpR4AdwYOnIYjxf-63" value="" style="endArrow=none;html=1;rounded=0;exitX=0.5;exitY=0;exitDx=0;exitDy=0;" edge="1" parent="1" source="IwdYHUpR4AdwYOnIYjxf-5" target="IwdYHUpR4AdwYOnIYjxf-37">
          <mxGeometry width="50" height="50" relative="1" as="geometry">
            <mxPoint x="770" y="380" as="sourcePoint" />
            <mxPoint x="820" y="330" as="targetPoint" />
          </mxGeometry>
        </mxCell>
        <mxCell id="IwdYHUpR4AdwYOnIYjxf-64" value="" style="endArrow=none;html=1;rounded=0;entryX=1;entryY=1;entryDx=0;entryDy=0;exitX=0.5;exitY=0;exitDx=0;exitDy=0;" edge="1" parent="1" source="IwdYHUpR4AdwYOnIYjxf-5" target="IwdYHUpR4AdwYOnIYjxf-36">
          <mxGeometry width="50" height="50" relative="1" as="geometry">
            <mxPoint x="770" y="380" as="sourcePoint" />
            <mxPoint x="820" y="330" as="targetPoint" />
          </mxGeometry>
        </mxCell>
        <mxCell id="IwdYHUpR4AdwYOnIYjxf-65" value="&lt;font style=&quot;font-size: 14px;&quot;&gt;creates&lt;/font&gt;" style="rhombus;whiteSpace=wrap;html=1;" vertex="1" parent="1">
          <mxGeometry x="620" y="600" width="103.5" height="70" as="geometry" />
        </mxCell>
        <mxCell id="IwdYHUpR4AdwYOnIYjxf-66" value="DateCommented" style="ellipse;whiteSpace=wrap;html=1;" vertex="1" parent="1">
          <mxGeometry x="1130" y="830" width="130" height="50" as="geometry" />
        </mxCell>
        <mxCell id="IwdYHUpR4AdwYOnIYjxf-67" value="CommentText&amp;nbsp;" style="ellipse;whiteSpace=wrap;html=1;" vertex="1" parent="1">
          <mxGeometry x="1180" y="760" width="100" height="50" as="geometry" />
        </mxCell>
        <mxCell id="IwdYHUpR4AdwYOnIYjxf-68" value="&lt;u&gt;CommentID&lt;/u&gt;" style="ellipse;whiteSpace=wrap;html=1;" vertex="1" parent="1">
          <mxGeometry x="1085" y="700" width="100" height="50" as="geometry" />
        </mxCell>
        <mxCell id="IwdYHUpR4AdwYOnIYjxf-69" value="" style="group" connectable="0" vertex="1" parent="1">
          <mxGeometry x="610" y="170" width="150" height="70" as="geometry" />
        </mxCell>
        <mxCell id="IwdYHUpR4AdwYOnIYjxf-70" value="" style="rounded=0;whiteSpace=wrap;html=1;" vertex="1" parent="IwdYHUpR4AdwYOnIYjxf-69">
          <mxGeometry width="150" height="70" as="geometry" />
        </mxCell>
        <mxCell id="IwdYHUpR4AdwYOnIYjxf-71" value="&lt;font style=&quot;font-size: 18px;&quot;&gt;Like&lt;/font&gt;" style="rounded=0;whiteSpace=wrap;html=1;" vertex="1" parent="IwdYHUpR4AdwYOnIYjxf-69">
          <mxGeometry x="18.75" y="8.75" width="112.5" height="52.5" as="geometry" />
        </mxCell>
        <mxCell id="IwdYHUpR4AdwYOnIYjxf-72" value="&lt;span style=&quot;font-size: 14px;&quot;&gt;likes&lt;/span&gt;" style="rhombus;whiteSpace=wrap;html=1;" vertex="1" parent="1">
          <mxGeometry x="550" y="320" width="103.5" height="70" as="geometry" />
        </mxCell>
        <mxCell id="IwdYHUpR4AdwYOnIYjxf-73" value="&lt;span style=&quot;font-size: 14px;&quot;&gt;has&lt;/span&gt;" style="rhombus;whiteSpace=wrap;html=1;" vertex="1" parent="1">
          <mxGeometry x="707" y="320" width="120" height="80" as="geometry" />
        </mxCell>
        <mxCell id="IwdYHUpR4AdwYOnIYjxf-74" style="edgeStyle=orthogonalEdgeStyle;rounded=0;orthogonalLoop=1;jettySize=auto;html=1;exitX=0.5;exitY=1;exitDx=0;exitDy=0;" edge="1" parent="1" source="IwdYHUpR4AdwYOnIYjxf-66" target="IwdYHUpR4AdwYOnIYjxf-66">
          <mxGeometry relative="1" as="geometry" />
        </mxCell>
        <mxCell id="IwdYHUpR4AdwYOnIYjxf-75" value="&lt;u&gt;LikeID&lt;/u&gt;" style="ellipse;whiteSpace=wrap;html=1;" vertex="1" parent="1">
          <mxGeometry x="570" y="80" width="100" height="50" as="geometry" />
        </mxCell>
        <mxCell id="IwdYHUpR4AdwYOnIYjxf-76" value="DateLiked" style="ellipse;whiteSpace=wrap;html=1;" vertex="1" parent="1">
          <mxGeometry x="707" y="80" width="100" height="50" as="geometry" />
        </mxCell>
        <mxCell id="IwdYHUpR4AdwYOnIYjxf-77" value="&lt;u&gt;FollowerID&lt;/u&gt;" style="ellipse;whiteSpace=wrap;html=1;" vertex="1" parent="1">
          <mxGeometry x="-170" y="560" width="100" height="50" as="geometry" />
        </mxCell>
        <mxCell id="IwdYHUpR4AdwYOnIYjxf-78" value="" style="group" connectable="0" vertex="1" parent="1">
          <mxGeometry x="-140" y="445" width="170" height="70" as="geometry" />
        </mxCell>
        <mxCell id="IwdYHUpR4AdwYOnIYjxf-79" value="" style="rounded=0;whiteSpace=wrap;html=1;" vertex="1" parent="IwdYHUpR4AdwYOnIYjxf-78">
          <mxGeometry width="150" height="70" as="geometry" />
        </mxCell>
        <mxCell id="IwdYHUpR4AdwYOnIYjxf-80" value="&lt;font style=&quot;font-size: 16px;&quot;&gt;Follow&lt;/font&gt;" style="rhombus;whiteSpace=wrap;html=1;" vertex="1" parent="IwdYHUpR4AdwYOnIYjxf-78">
          <mxGeometry width="150" height="70" as="geometry" />
        </mxCell>
        <mxCell id="IwdYHUpR4AdwYOnIYjxf-81" value="DateFollowed" style="ellipse;whiteSpace=wrap;html=1;" vertex="1" parent="1">
          <mxGeometry x="-50" y="560" width="100" height="50" as="geometry" />
        </mxCell>
        <mxCell id="IwdYHUpR4AdwYOnIYjxf-82" value="&lt;span style=&quot;font-size: 14px;&quot;&gt;follows&lt;/span&gt;" style="rhombus;whiteSpace=wrap;html=1;" vertex="1" parent="1">
          <mxGeometry x="90" y="445" width="103.5" height="70" as="geometry" />
        </mxCell>
        <mxCell id="IwdYHUpR4AdwYOnIYjxf-83" value="&lt;font style=&quot;font-size: 14px;&quot;&gt;creates&lt;/font&gt;" style="rhombus;whiteSpace=wrap;html=1;" vertex="1" parent="1">
          <mxGeometry x="100" y="580" width="103.5" height="70" as="geometry" />
        </mxCell>
        <mxCell id="IwdYHUpR4AdwYOnIYjxf-84" value="&lt;font style=&quot;font-size: 14px;&quot;&gt;creates&lt;/font&gt;" style="rhombus;whiteSpace=wrap;html=1;" vertex="1" parent="1">
          <mxGeometry x="330" y="580" width="103.5" height="70" as="geometry" />
        </mxCell>
        <mxCell id="IwdYHUpR4AdwYOnIYjxf-85" value="" style="endArrow=none;html=1;rounded=0;entryX=0.5;entryY=1;entryDx=0;entryDy=0;exitX=0.5;exitY=0;exitDx=0;exitDy=0;" edge="1" parent="1" source="IwdYHUpR4AdwYOnIYjxf-7" target="IwdYHUpR4AdwYOnIYjxf-84">
          <mxGeometry width="50" height="50" relative="1" as="geometry">
            <mxPoint x="270" y="710" as="sourcePoint" />
            <mxPoint x="320" y="660" as="targetPoint" />
          </mxGeometry>
        </mxCell>
        <mxCell id="IwdYHUpR4AdwYOnIYjxf-86" value="N" style="edgeLabel;html=1;align=center;verticalAlign=middle;resizable=0;points=[];" connectable="0" vertex="1" parent="IwdYHUpR4AdwYOnIYjxf-85">
          <mxGeometry x="-0.2613" y="1" relative="1" as="geometry">
            <mxPoint as="offset" />
          </mxGeometry>
        </mxCell>
        <mxCell id="IwdYHUpR4AdwYOnIYjxf-87" value="" style="endArrow=none;html=1;rounded=0;exitX=0.5;exitY=0;exitDx=0;exitDy=0;entryX=0.5;entryY=1;entryDx=0;entryDy=0;" edge="1" parent="1" source="IwdYHUpR4AdwYOnIYjxf-6" target="IwdYHUpR4AdwYOnIYjxf-83">
          <mxGeometry width="50" height="50" relative="1" as="geometry">
            <mxPoint x="220" y="660" as="sourcePoint" />
            <mxPoint x="270" y="610" as="targetPoint" />
          </mxGeometry>
        </mxCell>
        <mxCell id="IwdYHUpR4AdwYOnIYjxf-88" value="N" style="edgeLabel;html=1;align=center;verticalAlign=middle;resizable=0;points=[];" connectable="0" vertex="1" parent="IwdYHUpR4AdwYOnIYjxf-87">
          <mxGeometry x="-0.0413" y="-1" relative="1" as="geometry">
            <mxPoint as="offset" />
          </mxGeometry>
        </mxCell>
        <mxCell id="IwdYHUpR4AdwYOnIYjxf-89" value="MessageText" style="ellipse;whiteSpace=wrap;html=1;" vertex="1" parent="1">
          <mxGeometry x="310" y="800" width="100" height="50" as="geometry" />
        </mxCell>
        <mxCell id="IwdYHUpR4AdwYOnIYjxf-90" value="MessageText" style="ellipse;whiteSpace=wrap;html=1;" vertex="1" parent="1">
          <mxGeometry x="470" y="870" width="100" height="50" as="geometry" />
        </mxCell>
        <mxCell id="IwdYHUpR4AdwYOnIYjxf-91" value="&lt;u&gt;MessageID&lt;/u&gt;" style="ellipse;whiteSpace=wrap;html=1;" vertex="1" parent="1">
          <mxGeometry x="350" y="870" width="100" height="50" as="geometry" />
        </mxCell>
        <mxCell id="IwdYHUpR4AdwYOnIYjxf-92" value="ExpiryDate" style="ellipse;whiteSpace=wrap;html=1;" vertex="1" parent="1">
          <mxGeometry x="-30" y="870" width="100" height="50" as="geometry" />
        </mxCell>
        <mxCell id="IwdYHUpR4AdwYOnIYjxf-93" value="DatePosted" style="ellipse;whiteSpace=wrap;html=1;" vertex="1" parent="1">
          <mxGeometry x="-30" y="800" width="100" height="50" as="geometry" />
        </mxCell>
        <mxCell id="IwdYHUpR4AdwYOnIYjxf-94" value="Content" style="ellipse;whiteSpace=wrap;html=1;" vertex="1" parent="1">
          <mxGeometry x="140" y="790" width="100" height="50" as="geometry" />
        </mxCell>
        <mxCell id="IwdYHUpR4AdwYOnIYjxf-95" value="&lt;u&gt;StoryID&lt;/u&gt;" style="ellipse;whiteSpace=wrap;html=1;" vertex="1" parent="1">
          <mxGeometry x="130" y="870" width="100" height="50" as="geometry" />
        </mxCell>
        <mxCell id="IwdYHUpR4AdwYOnIYjxf-96" value="" style="endArrow=none;html=1;rounded=0;entryX=0.5;entryY=1;entryDx=0;entryDy=0;exitX=0;exitY=0;exitDx=0;exitDy=0;" edge="1" parent="1" source="IwdYHUpR4AdwYOnIYjxf-95" target="IwdYHUpR4AdwYOnIYjxf-6">
          <mxGeometry width="50" height="50" relative="1" as="geometry">
            <mxPoint x="80" y="880" as="sourcePoint" />
            <mxPoint x="130" y="830" as="targetPoint" />
          </mxGeometry>
        </mxCell>
        <mxCell id="IwdYHUpR4AdwYOnIYjxf-97" value="" style="endArrow=none;html=1;rounded=0;exitX=1;exitY=0;exitDx=0;exitDy=0;entryX=0.5;entryY=1;entryDx=0;entryDy=0;" edge="1" parent="1" source="IwdYHUpR4AdwYOnIYjxf-92" target="IwdYHUpR4AdwYOnIYjxf-6">
          <mxGeometry width="50" height="50" relative="1" as="geometry">
            <mxPoint x="80" y="880" as="sourcePoint" />
            <mxPoint x="130" y="830" as="targetPoint" />
          </mxGeometry>
        </mxCell>
        <mxCell id="IwdYHUpR4AdwYOnIYjxf-98" value="" style="endArrow=none;html=1;rounded=0;entryX=0.5;entryY=1;entryDx=0;entryDy=0;" edge="1" parent="1" source="IwdYHUpR4AdwYOnIYjxf-94" target="IwdYHUpR4AdwYOnIYjxf-6">
          <mxGeometry width="50" height="50" relative="1" as="geometry">
            <mxPoint x="80" y="880" as="sourcePoint" />
            <mxPoint x="130" y="830" as="targetPoint" />
          </mxGeometry>
        </mxCell>
        <mxCell id="IwdYHUpR4AdwYOnIYjxf-99" value="" style="endArrow=none;html=1;rounded=0;entryX=0.5;entryY=1;entryDx=0;entryDy=0;" edge="1" parent="1" source="IwdYHUpR4AdwYOnIYjxf-93" target="IwdYHUpR4AdwYOnIYjxf-6">
          <mxGeometry width="50" height="50" relative="1" as="geometry">
            <mxPoint x="80" y="880" as="sourcePoint" />
            <mxPoint x="130" y="830" as="targetPoint" />
          </mxGeometry>
        </mxCell>
        <mxCell id="IwdYHUpR4AdwYOnIYjxf-100" value="DateSent" style="ellipse;whiteSpace=wrap;html=1;" vertex="1" parent="1">
          <mxGeometry x="470" y="800" width="100" height="50" as="geometry" />
        </mxCell>
        <mxCell id="IwdYHUpR4AdwYOnIYjxf-101" value="" style="endArrow=none;html=1;rounded=0;entryX=0.5;entryY=1;entryDx=0;entryDy=0;exitX=0;exitY=0.5;exitDx=0;exitDy=0;" edge="1" parent="1" source="IwdYHUpR4AdwYOnIYjxf-90" target="IwdYHUpR4AdwYOnIYjxf-7">
          <mxGeometry width="50" height="50" relative="1" as="geometry">
            <mxPoint x="220" y="880" as="sourcePoint" />
            <mxPoint x="270" y="830" as="targetPoint" />
          </mxGeometry>
        </mxCell>
        <mxCell id="IwdYHUpR4AdwYOnIYjxf-102" value="" style="endArrow=none;html=1;rounded=0;entryX=0.5;entryY=1;entryDx=0;entryDy=0;" edge="1" parent="1" source="IwdYHUpR4AdwYOnIYjxf-91" target="IwdYHUpR4AdwYOnIYjxf-7">
          <mxGeometry width="50" height="50" relative="1" as="geometry">
            <mxPoint x="220" y="880" as="sourcePoint" />
            <mxPoint x="270" y="830" as="targetPoint" />
          </mxGeometry>
        </mxCell>
        <mxCell id="IwdYHUpR4AdwYOnIYjxf-103" value="" style="endArrow=none;html=1;rounded=0;entryX=0.5;entryY=1;entryDx=0;entryDy=0;exitX=0;exitY=0;exitDx=0;exitDy=0;" edge="1" parent="1" source="IwdYHUpR4AdwYOnIYjxf-100" target="IwdYHUpR4AdwYOnIYjxf-7">
          <mxGeometry width="50" height="50" relative="1" as="geometry">
            <mxPoint x="220" y="880" as="sourcePoint" />
            <mxPoint x="270" y="830" as="targetPoint" />
          </mxGeometry>
        </mxCell>
        <mxCell id="IwdYHUpR4AdwYOnIYjxf-104" value="" style="endArrow=none;html=1;rounded=0;entryX=0.5;entryY=1;entryDx=0;entryDy=0;exitX=1;exitY=0;exitDx=0;exitDy=0;" edge="1" parent="1" source="IwdYHUpR4AdwYOnIYjxf-89" target="IwdYHUpR4AdwYOnIYjxf-7">
          <mxGeometry width="50" height="50" relative="1" as="geometry">
            <mxPoint x="220" y="880" as="sourcePoint" />
            <mxPoint x="270" y="830" as="targetPoint" />
          </mxGeometry>
        </mxCell>
      </root>
    </mxGraphModel>
  </diagram>
</mxfile>
